<?xml version="1.0" encoding="iso-8859-1"?>
<!-- Generator: Adobe Illustrator 19.0.0, SVG Export Plug-In . SVG Version: 6.00 Build 0)  -->
<svg version="1.1" id="Capa_1" xmlns="http://www.w3.org/2000/svg" xmlns:xlink="http://www.w3.org/1999/xlink" x="0px" y="0px"
	 viewBox="0 0 450.402 450.402" style="enable-background:new 0 0 450.402 450.402;" xml:space="preserve">
<g>
	<g>
		<path d="M329.841,147.042C329.841,147.042,329.841,147.042,329.841,147.042h-21.12v-63.52C308.722,37.395,271.33,0.001,225.203,0
			c-46.127-0.001-83.521,37.391-83.522,83.518c0,0.001,0,0.003,0,0.004v63.52h-21.12c-4.418,0-8,3.582-8,8v76.8
			c1.006,58.031,46.685,105.421,104.64,108.56v38.32h-22.96c-8.837,0-16,7.163-16,16v12.16h-12.32c-8.837,0-16,7.163-16,16v11.52
			c0,8.837,7.163,16,16,16h118.56c8.837,0,16-7.163,16-16v-11.52c0-8.837-7.163-16-16-16h-12.24v-12.16c0-8.837-7.163-16-16-16
			h-23.04v-38.32c57.955-3.139,103.634-50.529,104.64-108.56v-76.8C337.841,150.624,334.259,147.042,329.841,147.042z
			 M157.681,83.522c0-37.29,30.23-67.52,67.52-67.52s67.52,30.23,67.52,67.52v46.24h-135.04V83.522z M157.681,145.762h135.04v25.28
			h-135.04V145.762z M157.681,187.042h135.04v39.52c0,37.29-30.23,67.52-67.52,67.52s-67.52-30.23-67.52-67.52V187.042z
			 M284.481,422.882v11.52h-118.56v-11.52H284.481z M256.241,394.722v12.16h-62v-12.16H256.241z M225.201,324.802
			c-52.326,0.937-95.546-40.637-96.64-92.96v-68.8h13.2v63.52c0.02,46.127,37.429,83.504,83.556,83.484
			c46.099-0.02,83.464-37.385,83.484-83.484v-63.52h13.12l0,68.8C320.827,284.197,277.558,325.784,225.201,324.802z"/>
	</g>
</g>
<g>
</g>
<g>
</g>
<g>
</g>
<g>
</g>
<g>
</g>
<g>
</g>
<g>
</g>
<g>
</g>
<g>
</g>
<g>
</g>
<g>
</g>
<g>
</g>
<g>
</g>
<g>
</g>
<g>
</g>
</svg>
